<svg width="8" height="7" viewBox="0 0 8 7" fill="none" xmlns="http://www.w3.org/2000/svg">
<path d="M5.48956 5.42C4.9419 6.36859 4.66806 6.84288 4.28903 6.95732C4.10055 7.01423 3.89945 7.01423 3.71097 6.95732C3.33194 6.84288 3.0581 6.36859 2.51044 5.42L1.15944 3.08C0.611768 2.13141 0.337933 1.65712 0.428344 1.27165C0.473303 1.07996 0.573849 0.905813 0.717375 0.771032C1.00599 0.500001 1.55366 0.500001 2.649 0.500001L5.351 0.5C6.44633 0.5 6.994 0.5 7.28262 0.771032C7.42615 0.905812 7.52669 1.07996 7.57165 1.27165C7.66207 1.65712 7.38823 2.13141 6.84056 3.08L5.48956 5.42Z" fill="black"/>
</svg>
