<svg width="524" height="110" viewBox="0 0 524 110" fill="none" xmlns="http://www.w3.org/2000/svg">
<path d="M262.262 108.869C334.041 108.869 399.048 102.934 446.133 93.328C469.668 88.5265 488.771 82.7988 502.012 76.4126C508.63 73.2204 513.829 69.8421 517.385 66.2966C520.943 62.749 522.918 58.9685 522.918 55C522.918 51.0315 520.943 47.251 517.385 43.7034C513.829 40.1579 508.63 36.7796 502.012 33.5874C488.771 27.2012 469.668 21.4735 446.133 16.672C399.048 7.06611 334.041 1.13115 262.262 1.13115C190.484 1.13115 125.476 7.06611 78.3917 16.672C54.8565 21.4735 35.7536 27.2012 22.5135 33.5874C15.8954 36.7796 10.6963 40.1579 7.14009 43.7034C3.58172 47.251 1.60673 51.0315 1.60673 55C1.60673 58.9685 3.58172 62.749 7.14009 66.2966C10.6963 69.8421 15.8954 73.2204 22.5135 76.4126C35.7536 82.7988 54.8565 88.5265 78.3917 93.328C125.476 102.934 190.484 108.869 262.262 108.869Z" stroke="black" stroke-width="1.73771"/>
</svg>
